<svg xmlns="http://www.w3.org/2000/svg" width="207" height="207" viewBox="0 0 207 207">
<!-- SVG created with Arrow, by QuiverAI (https://quiver.ai) -->
  <path d="m163.7 183.7c0-2.02-0.56-3.99-1.02-6.04-2.37-10.01-5.15-22.37-5.15-42.56 0-18.03 2.65-33.92 5.34-45.08 0.85-2.7 0.8-5.58-0.16-8.25-0.47-1.31-1.33-2.45-2.24-3.47-3.03-3.44-7.44-9.37-8.38-10.83-2.67-3.56-5.89-4.86-9.71-5.06h-14.24v-1.98c0.23-5.65-3.72-8.82-8.12-8.82h-6.19v-1.66h-20.93v0.61h-0.02v1.05h-6.41c-4.47 0-7.55 4.75-7.66 8.07l-0.17 2.73h-15.69c-4.08 0.39-7.27 2.12-9.38 5.49-1.23 1.85-6 8.08-8.39 10.88-1.73 2.07-2.41 4.45-2.41 7.84l0.4 2.49c3.72 12.48 6.25 21.64 6.57 44.49 0 14.48-1.8 28.38-6.12 46.3-1.14 4.75-0.8 9.08 2.81 13.28l7.2 9.53c2.39 3.3 5.15 4.29 9.72 4.29h80.1c4.56 0 7.69-1.47 9.84-4.91 2.1-3.34 5.64-7.59 7.58-9.92 1.79-2.18 2.53-5.44 2.83-8.47zm-6.12 6.53c-0.61 0.98-6.92 8.91-8.7 11.23-1.31 1.75-3.53 2.35-6.11 2.35h-78.32c-2.42 0-4.53-0.4-6.26-2.35l-8.99-11.44c-2.03-2.26-2.21-5.6-1.03-8.51 2.95-14.3 6-28.3 6-46.85 0-16.65-2.62-32.55-5.83-44.6-0.86-2.94-0.86-5.95 0.98-8.75l7.25-9.45c2.1-2.74 4.31-3.6 7.76-3.6h78.55c3.39 0 5.7 1.17 7.73 3.97l6.65 8.41c1.89 2.06 1.55 5.85 0.95 7.58-3.44 11.89-5.7 26.73-5.7 43.97-0.47 3.92-0.05 10.52 0.17 15.9 0.66 12.1 3.47 24.97 5.14 34.02 0.65 2.85 1.13 5.24-0.24 8.12z" fill="#000"/>
  <path d="m150.8 84.06c-0.67-1.66-2.47-3.57-4.1-5.62-2.16-2.75-2.7-4.36-7.61-4.64h-70.13c-2.75 0-4.6 0.97-5.94 2.88l-6.4 7.67c-1.43 2.38-1.67 4.64-1.04 6.49 2.88 10.07 5.87 23.07 5.87 47.38 0 11.49-0.97 21.51-3.04 32.06-0.46 4.47 0.45 8.48 3.25 11.57 3.39 3.9 7.01 5.38 11.13 5.27h61.78c8.46 0 14.01-7.9 14.18-14.83l-2.56-18.11c-0.69-7.04-0.8-11.46-0.06-27.84 0.69-11.72 2.85-22.83 5.17-33.22 0.8-3.2 1.2-5.7-0.5-9.06z" fill="#000"/>
  <path d="m85.11 6.21c-3.55 2.21-4.4 2.43-5.52 4.55-1.37 2.26-1.37 4.7-0.51 7.08 1.74 6.53 4.01 15.35 5.61 21.76 0.63 3.67 3.84 6.06 7.45 6.06h22.85c3.27 0 5.75-2.55 6.72-5.94 1.48-6.99 4.47-17.59 6.37-24.31 1.13-4.59-1.36-8.09-6.37-10.35-7.73-4.12-12.53-5.06-17.87-5.06-7.9 0-12.26 1.48-18.73 6.21z" fill="#000"/>
</svg>