<svg xmlns="http://www.w3.org/2000/svg" width="200" height="200" viewBox="0 0 200 200">
<!-- SVG created with Arrow, by QuiverAI (https://quiver.ai) -->
  <path d="m158.4 175.1c-2.27-9.89-5.72-24.55-6.22-42.79 0-17.05 1.97-29.06 5.87-46.21 0.83-3.62-0.28-8.2-2.46-10.48l-7.72-10.06c-2.17-2.88-6.38-4.62-9.48-4.62h-14.62v-2.02c0.27-4.98-3.55-8.61-7.41-8.61h-6.37v-1.73l-20.51 0.06v1.67h-6.18c-4.35 0-7.35 4.63-7.42 8.1v2.53h-15.2c-4.54 0-7.82 2.27-9.59 5.09l-7.7 9.98c-2.64 3.07-3.09 7.92-1.77 11.4 3.44 12.74 6.13 24.09 6.13 45.04-0.32 17.43-2.17 27.22-6.06 43.36-1.05 3.74 0.19 8.03 2.11 10.42l7.32 9.8c2.74 3.47 5.67 3.99 10.04 3.99h77.37c4.51 0 7.75-2.16 9.92-5.81l7.68-9.98c2.2-2.86 2.82-5.93 2.27-9.13zm-5.48 5.86c-0.33 1.41-0.98 2.51-1.68 3.32l-7.18 9.53c-1.63 2.34-3.33 2.84-6.47 2.84h-75.41c-3.27 0-5.38-0.52-7.38-3.36l-7.1-9.54c-1.52-2.17-2.13-4.69-1.52-7.34 3.44-15.35 5.48-27.51 5.48-44.1 0-15.57-1.78-30.28-5.06-46.92-0.96-2.39-0.42-5.69 1.03-7.36l7.1-9.25c1.95-2.46 3.97-2.88 5.95-2.88l30.67-0.06v1.72c-0.47 4.78 2.88 7.18 6.14 7.88v39.92h-38.96c0.47 5.47 0.65 11.37 0.58 17.02-0.07 9.93-0.92 18.53-2.7 30.98-0.93 6.71 3.97 16.45 14.07 16.45h58.57c8.64 0 14.58-8.06 14.38-14.4-0.04-1.54-0.33-3.14-0.58-4.49-1.6-11.69-2.43-20.61-2.36-30.29 0.04-4.84 0.27-10.13 0.47-15.27h-39.36v-39.87c4.28-1.14 6.18-4.76 6.18-8.28v-1.28h30.34c2.86-0.2 4.96 1.15 6.62 3.54l7.33 9.38c1.63 1.79 1.77 5.09 0.61 7.75-3.97 16-4.79 27.69-4.79 46.05 0.41 16.34 1.8 25.28 5.14 42.65 0.4 1.45 0.47 3.48-0.11 5.66z" fill="#000"/>
  <path d="m80.82 6.21c7.61-5.15 14.74-6.21 19.19-6.21 7.8 0 14.27 3.47 20.27 7.46 3.13 1.72 4.41 4.86 4 7.68l-0.41 1.89c-2.74 9.73-4.98 20.8-5.05 21.28-0.89 3.54-4.03 6.22-7.81 6.22l-21.9 0.07c-4.45 0-7.95-3.07-8.36-6.53-1.63-8.26-4.84-21.89-5.04-22.66-0.62-3.3 0.61-6.82 3.35-8.48l1.76-0.72z" fill="#000"/>
</svg>