<svg width="230" height="230" viewBox="0 0 230 230" fill="none" xmlns="http://www.w3.org/2000/svg">
<g clip-path="url(#clip0_3124_702)">
<path d="M162.822 106.765H67.1847C65.705 106.765 64.5343 108.13 64.8371 109.592C69.5328 135.633 69.7246 162.034 65.4121 188.075C63.7684 197.838 71.2223 206.81 81.2241 206.81H148.783C158.801 206.81 166.235 197.816 164.595 188.075C160.283 162.034 160.474 135.633 165.17 109.592C165.472 108.126 164.296 106.765 162.822 106.765ZM92.8908 44.5005C93.8252 48.7407 97.5384 51.7114 101.875 51.7114H128.132C132.468 51.7114 136.181 48.7407 137.115 44.5005L142.937 18.435C143.728 14.8889 142.362 11.1999 139.464 9.01986C123.221 -3.00662 106.786 -3.00662 90.5432 9.01986C87.6444 11.1999 86.2787 14.8889 87.0698 18.435L92.8908 44.5005Z" fill="black"/>
<path d="M181.263 99.3154C182.269 95.1709 181.407 90.9064 178.891 87.6006L170.315 76.2929C167.703 72.891 163.607 70.8546 159.342 70.8546H143.147V68.0996C143.147 63.0207 139.026 58.8758 133.923 58.8758H127.407V56.5039H102.587V58.8758H96.071C90.9679 58.8758 86.8472 63.0203 86.8472 68.0996V70.8546H70.652C66.3875 70.8546 62.2911 72.891 59.6794 76.2929L51.1029 87.6006C48.5872 90.9064 47.7247 95.1709 48.731 99.3154C56.8762 132.759 56.8762 168.096 48.731 201.54C47.7247 205.661 48.5872 209.949 51.1029 213.255L59.6794 224.562C62.2664 227.964 66.3871 230.001 70.652 230.001H159.341C163.605 230.001 167.725 227.964 170.313 224.562L178.89 213.255C181.405 209.949 182.268 205.66 181.262 201.54C173.118 168.096 173.118 132.759 181.263 99.3154ZM175.082 210.356L166.482 221.664C164.805 223.892 162.122 225.209 159.343 225.209H70.6538C67.8749 225.209 65.1917 223.892 63.5148 221.664L54.9145 210.356C53.2856 208.2 52.7102 205.397 53.3818 202.666C61.7188 168.503 61.7188 132.376 53.3818 98.1887C52.7111 95.4575 53.2856 92.6548 54.9145 90.4985L63.5148 79.1908C65.1917 76.9627 67.8749 75.6451 70.6538 75.6451H105.104V77.2502C105.104 81.874 108.29 85.7552 112.603 86.8091V101.974H117.394V86.8091C121.706 85.7548 124.893 81.8735 124.893 77.2502V75.6451H159.343C162.122 75.6451 164.805 76.9627 166.482 79.1908L175.082 90.4985C176.711 92.6548 177.287 95.4575 176.615 98.1887C168.278 132.375 168.278 168.503 176.615 202.666C177.287 205.397 176.711 208.2 175.082 210.356Z" fill="black"/>
<rect x="65" y="106" width="100" height="25" fill="white"/>
</g>
<defs>
<clipPath id="clip0_3124_702">
<rect width="230" height="230" fill="white"/>
</clipPath>
</defs>
</svg>
