<svg xmlns="http://www.w3.org/2000/svg" width="256" height="256" viewBox="0 0 256 256">
<!-- SVG created with Arrow, by QuiverAI (https://quiver.ai) -->
  <path d="m104.7 49.22c1.07 5.26 5.12 7.85 9.06 7.85h28.7c5.25 0 8.44-4.13 9.34-8.6l6.88-28.35c1.18-4.96-0.37-8.98-5.08-11.89-8.73-5.27-15.82-8.23-25.1-8.23-9.11 0-15.37 2.44-25.1 8.6-4.47 2.57-6.57 6.55-5.85 11.44l7.15 29.18z" fill="#000"/>
  <path d="m200.5 223.8c-9.72-37.57-7.61-76.46-0.56-112.6l0.79-3.13c1.18-5.12-0.57-9.28-3.5-12.58l-8.37-10.68c-3.11-3.48-6.76-6.47-12.13-6.43h-18.1v-3.49c0-6.17-5.51-9.82-9.65-9.82h-7.65v-2.58h-27.05v2.27h-7.65c-5.74 0-9.32 5.58-9.32 9.72v3.86l-19.58-0.01c-5.52 0-9.37 2.92-11.95 6.83l-8.93 12.04c-3.3 4.01-3.65 9.72-1.96 14.94 8.82 32.83 9.36 67.8-0.41 111.7-1.34 5.26-0.85 10.83 2.78 14.77l9.22 11.61c3.6 4.39 7.6 5.78 12.13 5.78h99.27c5.25 0 9.21-2.51 11.9-6.3l8.5-11.77c3.3-3.94 3.7-9.13 2.22-14.09zm-5.54 11-9.18 12.48c-2.44 3.45-5.45 4.8-8.66 4.8h-98.23c-3.96 0-6.9-1.85-9.85-5.86l-8.06-10.43c-2.69-3.11-2.57-7.57-0.93-12.61 10.42-38.78 7.64-76.5-0.5-114.5-1.18-3.8-0.2-6.6 1.6-9.04l9.1-11.48c2.68-2.8 5.08-3.76 7.98-3.76h38.96v1.94c0 5.93 4.04 9.38 8.23 9.9v35.08h-52.28c4.44 30.33 3.66 48.44-0.45 78.38-1.67 10.49 6.7 21.14 17.57 21.14h75.85c10.53 0 17.44-9.95 17.13-19.12-4.2-26.52-4.65-46.28-0.69-80.4h-52.59v-35.31c5.23-1.34 8.41-5.87 8.41-11.6h38.51c4.2 0 7.38 1.2 10.31 5.13l7.57 10.17c2.44 2.91 2.01 6.85 0.92 10.96-8.29 34.22-8.52 71.97-0.39 111 1.48 4.61 2.12 9.36-0.33 13.1z" fill="#000"/>
</svg>